<?xml version="1.0" encoding="UTF-8" standalone="no"?>
<!-- Created with Inkscape (http://www.inkscape.org/) -->

<svg
   width="512"
   height="512"
   viewBox="0 0 512 512"
   version="1.1"
   id="svg5"
   xml:space="preserve"
   inkscape:version="1.2 (dc2aedaf03, 2022-05-15)"
   sodipodi:docname="spooky view per los object.svg"
   inkscape:export-filename="spooky view per los object.png"
   inkscape:export-xdpi="96"
   inkscape:export-ydpi="96"
   xmlns:inkscape="http://www.inkscape.org/namespaces/inkscape"
   xmlns:sodipodi="http://sodipodi.sourceforge.net/DTD/sodipodi-0.dtd"
   xmlns:xlink="http://www.w3.org/1999/xlink"
   xmlns="http://www.w3.org/2000/svg"
   xmlns:svg="http://www.w3.org/2000/svg"><sodipodi:namedview
     id="namedview7"
     pagecolor="#ffffff"
     bordercolor="#999999"
     borderopacity="1"
     inkscape:showpageshadow="0"
     inkscape:pageopacity="0"
     inkscape:pagecheckerboard="0"
     inkscape:deskcolor="#d1d1d1"
     inkscape:document-units="px"
     showgrid="false"
     inkscape:zoom="1.1449053"
     inkscape:cx="170.31976"
     inkscape:cy="254.16949"
     inkscape:window-width="1920"
     inkscape:window-height="1009"
     inkscape:window-x="-8"
     inkscape:window-y="-8"
     inkscape:window-maximized="1"
     inkscape:current-layer="layer1" /><defs
     id="defs2"><linearGradient
       inkscape:collect="always"
       id="linearGradient15564"><stop
         style="stop-color:#000000;stop-opacity:1;"
         offset="0.54268295"
         id="stop15560" /><stop
         style="stop-color:#000000;stop-opacity:0;"
         offset="1"
         id="stop15562" /></linearGradient><linearGradient
       inkscape:collect="always"
       id="linearGradient14702"><stop
         style="stop-color:#416643;stop-opacity:1;"
         offset="0.73475611"
         id="stop14698" /><stop
         style="stop-color:#416643;stop-opacity:0;"
         offset="1"
         id="stop14700" /></linearGradient><inkscape:path-effect
       effect="perspective-envelope"
       up_left_point="104.56299,353.45498"
       up_right_point="299.39991,353.45498"
       down_left_point="64.985293,491.11802"
       down_right_point="338.9776,491.11802"
       id="path-effect4259"
       is_visible="true"
       lpeversion="1"
       deform_type="perspective"
       horizontal_mirror="false"
       vertical_mirror="true"
       overflow_perspective="false" /><inkscape:path-effect
       effect="perspective-envelope"
       up_left_point="68.649851,317.92969"
       up_right_point="335.31389,317.92969"
       down_left_point="68.649851,341.32696"
       down_right_point="335.31389,341.32696"
       id="path-effect4257"
       is_visible="true"
       lpeversion="1"
       deform_type="perspective"
       horizontal_mirror="false"
       vertical_mirror="false"
       overflow_perspective="false" /><inkscape:path-effect
       effect="perspective-envelope"
       up_left_point="68.76,317.92969"
       up_right_point="335.39844,317.92969"
       down_left_point="68.564453,490.87109"
       down_right_point="335.39844,490.87109"
       id="path-effect4181"
       is_visible="true"
       lpeversion="1"
       deform_type="perspective"
       horizontal_mirror="false"
       vertical_mirror="false"
       overflow_perspective="false" /><inkscape:path-effect
       effect="perspective-envelope"
       up_left_point="-340.63956,-497.85785"
       up_right_point="-74.241974,-497.85785"
       down_left_point="-340.63956,-325.79123"
       down_right_point="-74.241974,-325.79123"
       id="path-effect528"
       is_visible="true"
       lpeversion="1"
       deform_type="perspective"
       horizontal_mirror="false"
       vertical_mirror="false"
       overflow_perspective="false" /><filter
       id="selectable_hidder_filter"
       width="1"
       height="1"
       x="0"
       y="0"
       style="color-interpolation-filters:sRGB;"
       inkscape:label="LPE boolean visibility"><feComposite
         id="boolops_hidder_primitive"
         result="composite1"
         operator="arithmetic"
         in2="SourceGraphic"
         in="BackgroundImage" /></filter><inkscape:path-effect
       effect="bool_op"
       operand-path=""
       id="path-effect524"
       is_visible="true"
       lpeversion="1"
       operation="union"
       swap-operands="false"
       filltype-this="from-curve"
       filter=""
       filltype-operand="from-curve" /><inkscape:perspective
       sodipodi:type="inkscape:persp3d"
       inkscape:vp_x="-86.470032 : 229.79697 : 1"
       inkscape:vp_y="0 : 1000 : 0"
       inkscape:vp_z="638.64802 : 234.16414 : 1"
       inkscape:persp3d-origin="240.27817 : 225.69306 : 1"
       id="perspective406" /><linearGradient
       inkscape:collect="always"
       xlink:href="#linearGradient14702"
       id="linearGradient14704"
       x1="213.66606"
       y1="198.60001"
       x2="211.63387"
       y2="434.42737"
       gradientUnits="userSpaceOnUse"
       gradientTransform="matrix(1.2158711,0,0,1.2158711,-7.181742,-100.07682)" /><linearGradient
       inkscape:collect="always"
       xlink:href="#linearGradient15564"
       id="linearGradient15566"
       x1="213.66606"
       y1="198.60001"
       x2="211.63387"
       y2="434.42737"
       gradientUnits="userSpaceOnUse"
       gradientTransform="matrix(1.2158711,0,0,1.2158711,-7.181742,-100.07682)" /></defs><g
     id="layer2"
     inkscape:label="Layer 2"
     inkscape:groupmode="layer"><g
       id="g4084"
       inkscape:path-effect="#path-effect4259"
       inkscape:label="g4084"
       transform="matrix(1.215871,0,0,1.215871,-7.181742,-100.07682)"><path
         id="rect387"
         style="opacity:1;fill:#f3f3f3;fill-opacity:1;stroke:#000000;stroke-width:1.6;stroke-dasharray:none"
         d="M 334.62259,475.97001 H 69.3403 l -1.210632,4.21093 c -1.723922,5.99632 1.435285,10.93708 7.123894,10.93708 l 253.455768,0 c 5.6886,0 8.84782,-4.94076 7.12389,-10.93708 z"
         inkscape:original-d="M 335.39844,476.89453 H 68.564453 v 3.97656 c 0,5.54 4.460012,10 10,10 H 325.39844 c 5.53998,0 10,-4.46 10,-10 z" /><path
         id="path3312"
         style="opacity:1;fill:#ffffff;stroke:#000000;stroke-width:1.6;stroke-dasharray:none"
         d="M 100.86298,366.32472 69.3403,475.97001 H 334.62259 L 303.36498,367.24669 Z"
         inkscape:original-d="M 68.564453,339.83398 V 476.89453 H 335.39844 V 341.3418 Z" /><path
         id="path1089"
         style="opacity:1;fill:#0078d4;fill-opacity:1;stroke:#000000;stroke-width:1.6;stroke-dasharray:none"
         d="m 111.86479,353.45498 c -4.04519,0 -8.03306,2.54351 -8.95681,5.75662 l -2.045,7.11312 202.502,0.92197 -2.31006,-8.03509 c -0.92376,-3.21311 -4.91162,-5.75662 -8.95682,-5.75662 z"
         inkscape:original-d="m 78.564453,317.92969 c -5.539994,0 -10,4.46 -10,10 v 11.90429 l 266.833987,1.50782 v -13.41211 c 0,-5.54 -4.46001,-10 -10,-10 z" /></g></g><g
     inkscape:groupmode="layer"
     id="layer5"
     inkscape:label="Layer 4"><path
       style="opacity:1;fill:url(#linearGradient14704);fill-opacity:1;stroke:url(#linearGradient15566);stroke-width:1.62197;stroke-dasharray:none;stroke-opacity:1"
       d="m 253.62721,414.07866 c 7.21783,-10.81306 11.79185,-22.54954 18.85314,-33.37678 3.68668,-5.65381 9.90127,-9.85625 12.40377,-16.18267 12.23706,-30.93724 13.32771,-66.60589 31.83933,-95.07324 4.73057,-7.27512 10.94414,-11.85482 16.60375,-18.24495 13.48119,-15.22286 25.87783,-29.71241 41.26184,-43.26441 4.91455,-4.32886 11.32633,-6.23639 16.2185,-10.51266 7.79721,-6.81494 13.4802,-17.28918 18.73932,-26.08547 8.69472,-14.54318 15.96134,-30.06237 26.48872,-43.49094 7.04707,-8.98949 17.26241,-15.97181 23.66302,-25.37596 3.9174,-5.755168 2.03798,-14.709048 -4.81901,-17.364219 -7.7047,-2.983881 -19.67952,0.685033 -27.43911,2.286616 -22.59471,4.663838 -41.74771,16.929513 -54.3324,36.407893 -17.92005,27.7371 -28.60907,77.3188 -71.70765,63.71928 8.39793,-18.75876 23.4516,-35.43097 27.78065,-55.62794 5.09244,-23.7586 -4.87795,-45.082122 -8.16313,-67.764974 -1.30816,-9.037023 3.11543,-19.828644 -0.53668,-28.304919 -5.35466,-12.426823 -23.67418,-14.173883 -35.34406,-14.174612 -29.40289,-0.0024 -66.25437,5.441424 -85.8607,30.346366 -13.97317,17.748957 -15.40636,54.034269 -4.5283,73.829619 7.31744,13.31633 21.4329,25.13979 26.33525,39.44528 4.37482,12.7651 -0.97986,36.15514 -17.2624,36.39181 -19.56567,0.28623 -23.44141,-12.97851 -33.70148,-26.23819 -14.87374,-19.22098 -37.14663,-51.04825 -61.84499,-57.90364 -8.887042,-2.46624 -17.009203,4.72231 -18.107887,13.36183 -1.428215,11.23077 2.357561,19.2685 10.067247,27.2931 19.46302,20.25868 38.99353,42.83655 64.96194,55.08482 13.8085,6.51354 27.96972,12.23513 41.67452,19.01465 4.7387,2.34345 13.19355,5.15721 15.74078,10.07878 3.19267,6.16661 1.65377,15.24408 3.4539,22.03575 7.166,27.03215 13.82375,53.75279 3.25773,80.91339 -5.93099,15.24409 -16.75823,28.31566 -20.12981,44.50237 -0.7288,3.49951 -3.55656,12.45156 -1.23803,15.5475 1.84892,2.46889 9.23852,2.09466 12.12931,2.5761 11.23585,1.8701 22.38837,4.26413 33.54292,6.15042"
       id="path13094"
       sodipodi:nodetypes="ccccccccccccccscccccccccscccccccscc" /></g><g
     inkscape:label="Layer 1"
     inkscape:groupmode="layer"
     id="layer1"><path
       style="display:inline;fill:#000000;stroke-width:1.01393"
       d="m 222.70335,87.174354 c -1.18085,-0.195536 -3.46786,-1.727133 -5.08226,-3.403563 -2.67691,-2.779774 -2.96662,-3.794588 -3.29166,-11.530361 l -0.35641,-8.482317 4.59769,-4.842037 4.59767,-4.842036 8.24439,-0.372544 c 9.39584,-0.424569 12.70901,0.554329 19.10299,5.644135 3.77745,3.006958 4.31992,3.943374 4.31992,7.457035 0,6.257917 -4.38307,13.398813 -11.61751,18.927269 -2.56833,1.962672 -4.03556,2.242808 -10.67275,2.037728 -4.2323,-0.13078 -8.66121,-0.397773 -9.84207,-0.593309 z"
       id="path263" /><path
       style="display:inline;fill:#000000;stroke-width:1.01393"
       d="m 281.77166,90.242593 c -3.10563,-0.750728 -8.58735,-5.208646 -10.75548,-8.746685 -2.13774,-3.488444 -2.66705,-12.793322 -0.97909,-17.211081 1.41477,-3.702643 7.72274,-10.305966 11.22331,-11.748767 5.25832,-2.167278 11.71938,-0.496805 16.31885,4.219134 4.40814,4.519794 5.89693,8.421864 6.75238,17.69778 0.48944,5.307083 0.23677,6.786677 -1.68815,9.885847 -1.24504,2.004546 -3.56907,4.316318 -5.16447,5.13725 -2.7557,1.417973 -11.28969,1.834433 -15.70735,0.766522 z"
       id="path259" /><path
       style="display:inline;fill:#000000;stroke-width:1.01393"
       d="m 258.85348,159.4369 c -15.02711,-5.56516 -21.67773,-19.72644 -16.56658,-35.27552 2.09875,-6.3848 7.30543,-10.00062 17.7947,-12.35767 14.88119,-3.34394 25.45129,-1.37683 35.60656,6.62643 8.00263,6.30681 10.25569,17.88205 5.2294,26.86634 -7.24109,12.94314 -10.43288,14.75241 -26.76929,15.17403 -7.87509,0.20326 -12.86568,-0.134 -15.29479,-1.03361 z"
       id="path255" /></g></svg>
